<?xml version="1.0" encoding="UTF-8" standalone="no"?>
<svg
   xmlns:dc="http://purl.org/dc/elements/1.1/"
   xmlns:cc="http://creativecommons.org/ns#"
   xmlns:rdf="http://www.w3.org/1999/02/22-rdf-syntax-ns#"
   xmlns:svg="http://www.w3.org/2000/svg"
   xmlns="http://www.w3.org/2000/svg"
   xmlns:sodipodi="http://sodipodi.sourceforge.net/DTD/sodipodi-0.dtd"
   xmlns:inkscape="http://www.inkscape.org/namespaces/inkscape"
   width="512"
   height="512"
   id="svg2"
   version="1.1"
   inkscape:version="0.91 r13725"
   sodipodi:docname="busTrue.svg"
   inkscape:export-filename="D:\1Work\1Development\1webgis\MAPS.ADMSURGUT.RU\image\point\busstation\2.png"
   inkscape:export-xdpi="11.25"
   inkscape:export-ydpi="11.25">
  <metadata
     id="metadata44">
    <rdf:RDF>
      <cc:Work
         rdf:about="">
        <dc:format>image/svg+xml</dc:format>
        <dc:type
           rdf:resource="http://purl.org/dc/dcmitype/StillImage" />
        <dc:title />
      </cc:Work>
    </rdf:RDF>
  </metadata>
  <sodipodi:namedview
     pagecolor="#ffffff"
     bordercolor="#666666"
     borderopacity="1"
     objecttolerance="10"
     gridtolerance="10"
     guidetolerance="10"
     inkscape:pageopacity="0"
     inkscape:pageshadow="2"
     inkscape:window-width="1239"
     inkscape:window-height="674"
     id="namedview42"
     showgrid="false"
     inkscape:zoom="0.4609375"
     inkscape:cx="-322.22164"
     inkscape:cy="190.4368"
     inkscape:window-x="2"
     inkscape:window-y="108"
     inkscape:window-maximized="0"
     inkscape:current-layer="g14" />
  <defs
     id="defs4">
    <filter
       height="200%"
       width="200%"
       y="-50%"
       x="-50%"
       id="svg_18_blur">
      <feGaussianBlur
         stdDeviation="10"
         in="SourceGraphic"
         id="feGaussianBlur7" />
    </filter>
    <filter
       height="2"
       width="2"
       y="-0.5"
       x="-0.5"
       id="svg_18_blur-0">
      <feGaussianBlur
         stdDeviation="10"
         in="SourceGraphic"
         id="feGaussianBlur7-7" />
    </filter>
  </defs>
  <g
     id="g14">
    <title
       id="title16">Layer 1</title>
    <g
       id="svg_3" />
    <g
       id="svg_4" />
    <g
       id="svg_5" />
    <g
       id="svg_6" />
    <g
       id="svg_7" />
    <g
       id="svg_8" />
    <g
       id="svg_9" />
    <g
       id="svg_10" />
    <g
       id="svg_11" />
    <g
       id="svg_12" />
    <g
       id="svg_13" />
    <g
       id="svg_14" />
    <g
       id="svg_15" />
    <g
       id="svg_16" />
    <g
       id="svg_17" />
    <g
       id="g4204"
       transform="translate(566.23727,4.3389893)">
      <circle
         r="232.35001"
         cy="251.66101"
         cx="-310.23727"
         id="path4180-7"
         style="fill:#41a6dd;fill-opacity:1" />
      <circle
         r="219.90002"
         cy="251.66101"
         cx="-310.23727"
         id="path4180-7-2"
         style="fill:#ffffff;fill-opacity:1" />
      <circle
         r="200"
         cy="251.66101"
         cx="-310.23727"
         id="path4180"
         style="fill:#41a6dd;fill-opacity:1" />
      <polyline
         style="fill:none;stroke:#33666c;stroke-width:0;stroke-linecap:round"
         transform="translate(-567.77135,1.797262)"
         points="432.5,282.9499969482422 432.5,283.9499969482422 "
         id="svg_29" />
      <g
         style="fill:#ffffff;fill-opacity:1"
         transform="matrix(0.63124335,0,0,0.63124335,-436.88996,125.00866)"
         id="g4210">
        <g
           style="fill:#ffffff;fill-opacity:1"
           id="g4164">
          <path
             style="fill:#ffffff;fill-opacity:1"
             inkscape:connector-curvature="0"
             d="m 374.878,79.565 -15.102,0 0,-26.842 C 359.777,23.605 336.172,0 307.054,0 L 94.225,0 C 65.107,0 41.502,23.605 41.502,52.723 l 0,26.842 -15.101,0 c -6.063,0 -10.978,4.915 -10.978,10.979 l 0,60.812 c 0,6.063 4.915,10.978 10.978,10.978 l 15.102,0 0,131.081 c -5.874,5.265 -9.572,12.908 -9.572,21.417 l 0,20.316 c 0,15.883 12.875,28.758 28.758,28.758 l 3.558,0 0,28.914 c 0,4.672 3.79,8.459 8.462,8.459 l 38.908,0 c 4.672,0 8.458,-3.787 8.458,-8.459 l 0,-28.914 161.13,0 0,28.914 c 0,4.672 3.786,8.459 8.459,8.459 l 38.907,0 c 4.672,0 8.461,-3.787 8.461,-8.459 l 0,-28.914 3.559,0 c 15.882,0 28.758,-12.875 28.758,-28.758 l 0,-20.316 c 0,-8.508 -3.698,-16.152 -9.572,-21.417 l 0,-131.082 15.102,0 c 6.062,0 10.978,-4.915 10.978,-10.978 l 0,-60.812 C 385.856,84.48 380.942,79.565 374.878,79.565 Z m -47.703,4.29 0,129.731 -112.156,0 0,-129.731 112.156,0 z M 144.722,27.49 l 111.836,0 c 7.765,0 14.06,6.294 14.06,14.06 0,7.764 -6.294,14.059 -14.06,14.059 l -111.836,0 c -7.765,0 -14.06,-6.295 -14.06,-14.059 0,-7.766 6.295,-14.06 14.06,-14.06 z m -70.617,56.365 112.156,0 0,129.731 -112.156,0 0,-129.731 z m 50.198,187.608 c 0,7.643 -6.216,13.858 -13.86,13.858 l -22.871,0 c -7.631,0 -13.846,-6.216 -13.846,-13.858 l 0,-15.42 c 0,-7.645 6.215,-13.859 13.846,-13.859 l 22.871,0 c 7.644,0 13.86,6.215 13.86,13.859 l 0,15.42 z m 152.675,0 0,-15.42 c 0,-7.645 6.215,-13.859 13.859,-13.859 l 22.871,0 c 7.631,0 13.846,6.215 13.846,13.859 l 0,15.42 c 0,7.643 -6.215,13.858 -13.846,13.858 l -22.871,0 c -7.643,10e-4 -13.859,-6.216 -13.859,-13.858 z"
             id="path4166" />
        </g>
        <g
           style="fill:#ffffff;fill-opacity:1"
           id="g4168" />
        <g
           style="fill:#ffffff;fill-opacity:1"
           id="g4170" />
        <g
           style="fill:#ffffff;fill-opacity:1"
           id="g4172" />
        <g
           style="fill:#ffffff;fill-opacity:1"
           id="g4174" />
        <g
           style="fill:#ffffff;fill-opacity:1"
           id="g4176" />
        <g
           style="fill:#ffffff;fill-opacity:1"
           id="g4178" />
        <g
           style="fill:#ffffff;fill-opacity:1"
           id="g4180" />
        <g
           style="fill:#ffffff;fill-opacity:1"
           id="g4182" />
        <g
           style="fill:#ffffff;fill-opacity:1"
           id="g4184" />
        <g
           style="fill:#ffffff;fill-opacity:1"
           id="g4186" />
        <g
           style="fill:#ffffff;fill-opacity:1"
           id="g4188" />
        <g
           style="fill:#ffffff;fill-opacity:1"
           id="g4190" />
        <g
           style="fill:#ffffff;fill-opacity:1"
           id="g4192" />
        <g
           style="fill:#ffffff;fill-opacity:1"
           id="g4194" />
        <g
           style="fill:#ffffff;fill-opacity:1"
           id="g4196" />
      </g>
    </g>
  </g>
</svg>
