<svg width="512" height="512" viewBox="0 0 512 512" fill="none" xmlns="http://www.w3.org/2000/svg">
<g clip-path="url(#clip0_32_220)">
<path d="M264.678 510.506C401.643 510.506 512.675 399.474 512.675 262.508C512.675 125.543 401.643 14.511 264.678 14.511C127.713 14.511 16.6805 125.543 16.6805 262.508C16.6805 399.474 127.713 510.506 264.678 510.506Z" fill="#FF6600"/>
<path d="M264.375 492.756C391.705 492.756 494.926 389.535 494.926 262.205C494.926 134.875 391.705 31.6541 264.375 31.6541C137.045 31.6541 33.8237 134.875 33.8237 262.205C33.8237 389.535 137.045 492.756 264.375 492.756Z" fill="white"/>
<path d="M266.166 473.671C384.061 473.671 479.634 378.098 479.634 260.203C479.634 142.308 384.061 46.7351 266.166 46.7351C148.271 46.7351 52.6982 142.308 52.6982 260.203C52.6982 378.098 148.271 473.671 266.166 473.671Z" fill="#41A6DD"/>
<path d="M389.562 183.665H378.094V163.742C378.095 142.13 360.17 124.61 338.06 124.61H176.448C154.338 124.61 136.413 142.13 136.413 163.742V183.665H124.946C120.342 183.665 116.61 187.313 116.61 191.814V236.95C116.61 241.45 120.342 245.098 124.946 245.098H136.414V342.389C131.954 346.297 129.145 351.97 129.145 358.286V373.365C129.145 385.153 138.922 394.709 150.983 394.709H153.685V416.17C153.685 419.638 156.562 422.449 160.11 422.449H189.655C193.203 422.449 196.077 419.638 196.077 416.17V394.709H318.431V416.17C318.431 419.638 321.306 422.449 324.854 422.449H354.398C357.946 422.449 360.823 419.638 360.823 416.17V394.709H363.526C375.586 394.709 385.363 385.153 385.363 373.365V358.286C385.363 351.971 382.555 346.297 378.095 342.389V245.097H389.562C394.165 245.097 397.898 241.449 397.898 236.949V191.813C397.898 187.313 394.166 183.665 389.562 183.665ZM353.338 186.849V283.139H268.173V186.849H353.338ZM214.793 145.014H299.716C305.612 145.014 310.392 149.685 310.392 155.45C310.392 161.212 305.613 165.884 299.716 165.884H214.793C208.897 165.884 204.117 161.212 204.117 155.45C204.117 149.685 208.897 145.014 214.793 145.014ZM161.17 186.849H246.336V283.139H161.17V186.849ZM199.288 326.096C199.288 331.769 194.568 336.382 188.763 336.382H171.396C165.602 336.382 160.882 331.768 160.882 326.096V314.651C160.882 308.977 165.602 304.365 171.396 304.365H188.763C194.568 304.365 199.288 308.978 199.288 314.651V326.096ZM315.221 326.096V314.651C315.221 308.977 319.941 304.365 325.745 304.365H343.112C348.907 304.365 353.626 308.978 353.626 314.651V326.096C353.626 331.769 348.907 336.382 343.112 336.382H325.745C319.942 336.383 315.221 331.768 315.221 326.096Z" fill="white"/>
</g>
<defs>
<clipPath id="clip0_32_220">
<rect width="512" height="512" fill="white"/>
</clipPath>
</defs>
</svg>
