<svg width="512" height="512" viewBox="0 0 512 512" fill="none" xmlns="http://www.w3.org/2000/svg">
<g clip-path="url(#clip0_32_319)">
<path d="M264.678 510.506C401.643 510.506 512.675 399.474 512.675 262.508C512.675 125.543 401.643 14.511 264.678 14.511C127.713 14.511 16.6805 125.543 16.6805 262.508C16.6805 399.474 127.713 510.506 264.678 510.506Z" fill="#41A6DD"/>
<path d="M264.375 492.756C391.705 492.756 494.926 389.535 494.926 262.205C494.926 134.875 391.705 31.6541 264.375 31.6541C137.045 31.6541 33.8237 134.875 33.8237 262.205C33.8237 389.535 137.045 492.756 264.375 492.756Z" fill="white"/>
<path d="M266.166 473.671C384.061 473.671 479.634 378.098 479.634 260.203C479.634 142.308 384.061 46.7351 266.166 46.7351C148.271 46.7351 52.6982 142.308 52.6982 260.203C52.6982 378.098 148.271 473.671 266.166 473.671Z" fill="#41A6DD"/>
<path opacity="0.98" fill-rule="evenodd" clip-rule="evenodd" d="M147.595 432.03C139.406 431.64 137.109 430.821 133.867 427.139C127.691 420.122 128.114 406.01 134.682 399.956C137.495 397.363 139.607 396.482 143.017 396.482C144.504 396.482 146.419 396.343 147.273 396.172L148.825 395.861L148.971 275.547C149.107 163.097 149.173 154.922 149.998 150.482C152.256 138.319 155.491 128.892 160.13 120.952C161.874 117.967 164.136 115.184 167.862 111.442C174.31 104.965 177.322 103.295 184.095 102.442C194.901 101.08 355.355 101.094 366.595 102.458C372.537 103.178 374.862 104.114 379.111 107.495C392.668 118.283 400.429 135.835 402.314 159.972C402.562 163.129 402.655 165.885 402.526 166.097C402.396 166.309 353.926 166.482 294.817 166.482H187.345V251.982V337.482H222.095H256.845V355.482V373.482H222.095H187.345V384.654V395.825L192.569 396.321C196.901 396.731 198.14 397.045 199.823 398.159C204.205 401.058 206.845 406.994 206.845 413.945C206.845 418.703 205.802 422.464 203.574 425.733C199.748 431.347 196.151 432.085 171.845 432.248C162.358 432.311 151.445 432.214 147.595 432.03Z" fill="white"/>
<path d="M264.936 132.845V99.2074L214.797 99.5256C158.359 99.8838 161.801 99.4821 152.436 106.801C139.202 117.143 130.591 137.374 129.2 161.399L128.905 166.482H196.921H264.936V132.845Z" fill="white"/>
<path d="M264.56 132.845V99.2074L315.433 99.5256C372.699 99.8838 369.206 99.4821 378.708 106.801C392.136 117.143 400.873 137.374 402.285 161.399L402.584 166.482H333.572H264.56V132.845Z" fill="white"/>
<path d="M264.936 132.845V99.2074L214.797 99.5256C158.359 99.8838 161.801 99.4821 152.436 106.801C139.202 117.143 130.591 137.374 129.2 161.399L128.905 166.482H196.921H264.936V132.845Z" fill="white"/>
<path d="M264.56 132.845V99.2074L315.433 99.5256C372.699 99.8838 369.206 99.4821 378.708 106.801C392.136 117.143 400.873 137.374 402.285 161.399L402.584 166.482H333.572H264.56V132.845Z" fill="white"/>
</g>
<defs>
<clipPath id="clip0_32_319">
<rect width="512" height="512" fill="white"/>
</clipPath>
</defs>
</svg>
