<svg width="512" height="512" viewBox="0 0 512 512" fill="none" xmlns="http://www.w3.org/2000/svg">
<g clip-path="url(#clip0_32_118)">
<path d="M256 503.997C392.965 503.997 503.997 392.965 503.997 256C503.997 119.035 392.965 8.0025 256 8.0025C119.035 8.0025 8.0025 119.035 8.0025 256C8.0025 392.965 119.035 503.997 256 503.997Z" fill="#41A6DD"/>
<path d="M255.697 486.248C383.027 486.248 486.248 383.027 486.248 255.697C486.248 128.367 383.027 25.1456 255.697 25.1456C128.367 25.1456 25.1457 128.367 25.1457 255.697C25.1457 383.027 128.367 486.248 255.697 486.248Z" fill="white"/>
<path d="M257.488 467.162C375.383 467.162 470.956 371.589 470.956 253.694C470.956 135.799 375.383 40.2266 257.488 40.2266C139.593 40.2266 44.0202 135.799 44.0202 253.694C44.0202 371.589 139.593 467.162 257.488 467.162Z" fill="#41A6DD"/>
<path opacity="0.98" fill-rule="evenodd" clip-rule="evenodd" d="M390 385.959C388.352 384.999 388.25 379.03 388.25 282.99V181.04H322.25H256.25V280.085V379.13L253.795 381.585L251.341 384.04H180.351H109.361L106.556 381.626L103.75 379.213V257.039V134.866L106.567 132.443L109.385 130.019L253.731 130.279L398.078 130.539L402.325 133.539C404.662 135.189 407.512 138.339 408.661 140.539C410.741 144.523 410.75 145.032 411.013 264.539C411.255 376.637 411.164 384.622 409.571 385.789C407.503 387.306 392.536 387.437 390 385.959ZM175.25 265.02V241.001L153.5 241.27L131.75 241.539L131.481 262.814L131.212 284.09L133.687 286.564C136.151 289.028 136.245 289.039 155.707 289.039H175.252L175.25 265.02ZM228.816 286.565L231.29 284.09L231.021 262.815L230.752 241.54H209.252H187.752L187.483 265.29L187.214 289.04H206.777C226.258 289.04 226.352 289.029 228.816 286.565ZM175.25 205.54V182.04H155.705C129.299 182.04 131.25 179.969 131.25 207.994V229.04H153.25H175.25V205.54ZM231.055 207.45C230.663 179.638 232.836 181.9 206.863 182.269L187.75 182.541L187.481 205.791L187.212 229.041H209.286H231.359L231.055 207.45Z" fill="white"/>
</g>
<defs>
<clipPath id="clip0_32_118">
<rect width="512" height="512" fill="white"/>
</clipPath>
</defs>
</svg>
